<svg xmlns="http://www.w3.org/2000/svg" width="512" height="512" viewBox="0 0 200 200">
  <defs>
    <linearGradient id="skyMaskRich" x1="30" y1="4" x2="168" y2="196" gradientUnits="userSpaceOnUse">
      <stop offset="0" stop-color="#62a9d1"/>
      <stop offset="0.38" stop-color="#b9dde8"/>
      <stop offset="0.68" stop-color="#f0e5c5"/>
      <stop offset="1" stop-color="#f2bd65"/>
    </linearGradient>
    <radialGradient id="skyMaskBloom" cx="48%" cy="42%" r="62%">
      <stop offset="0" stop-color="#ffe8a5" stop-opacity="0.72"/>
      <stop offset="0.46" stop-color="#f4cc74" stop-opacity="0.25"/>
      <stop offset="1" stop-color="#f4cc74" stop-opacity="0"/>
    </radialGradient>
    <linearGradient id="pinMaskGlass" x1="60" y1="40" x2="140" y2="178" gradientUnits="userSpaceOnUse">
      <stop offset="0" stop-color="#ffffff" stop-opacity="0.98"/>
      <stop offset="0.50" stop-color="#edf8fb" stop-opacity="0.88"/>
      <stop offset="1" stop-color="#b5dde3" stop-opacity="0.84"/>
    </linearGradient>
    <linearGradient id="pinMaskStroke" x1="60" y1="42" x2="140" y2="178" gradientUnits="userSpaceOnUse">
      <stop offset="0" stop-color="#ffffff"/>
      <stop offset="0.72" stop-color="#55aa97" stop-opacity="0.78"/>
      <stop offset="1" stop-color="#2e7d62" stop-opacity="0.92"/>
    </linearGradient>
    <radialGradient id="sunMaskWarm" cx="38%" cy="30%" r="72%">
      <stop offset="0" stop-color="#fff6c9"/>
      <stop offset="0.48" stop-color="#ffc452"/>
      <stop offset="1" stop-color="#dc8b28"/>
    </radialGradient>
  </defs>
  <rect width="200" height="200" fill="url(#skyMaskRich)"/>
  <circle cx="97" cy="83" r="55" fill="url(#skyMaskBloom)"/>
  <g transform="translate(100 112) scale(1.24) translate(-100 -112)">
    <ellipse cx="100" cy="178" rx="31" ry="6.3" fill="#152a34" opacity="0.24"/>
    <path d="M100 176 C100 176 56 138 56 104 C56 76 76 60 100 60 C124 60 144 76 144 104 C144 138 100 176 100 176Z" fill="url(#pinMaskGlass)" stroke="url(#pinMaskStroke)" stroke-width="2.55"/>
    <circle cx="100" cy="100" r="22" fill="url(#sunMaskWarm)" stroke="#ffffff" stroke-opacity="0.92" stroke-width="2.8"/>
    <path d="M66 120 L134 120" fill="none" stroke="#ffffff" stroke-opacity="0.98" stroke-width="10" stroke-linecap="round"/>
  </g>
</svg>
